<svg version="1.1" id="Layer_1" xmlns="http://www.w3.org/2000/svg" xmlns:xlink="http://www.w3.org/1999/xlink" x="0px" y="0px"
	 width="100%" viewBox="0 0 259 194" enable-background="new 0 0 259 194" xml:space="preserve">
<path fill="#FFFFFF" opacity="1.000000" stroke="none" 
	d="
M138.000000,195.000000 
	C92.000000,195.000000 46.500004,195.000000 1.000006,195.000000 
	C1.000004,130.333344 1.000004,65.666679 1.000002,1.000015 
	C87.333321,1.000010 173.666641,1.000010 260.000000,1.000005 
	C260.000000,65.666649 260.000000,130.333298 260.000000,194.999969 
	C219.500000,195.000000 179.000000,195.000000 138.000000,195.000000 
M117.997589,114.393761 
	C117.661171,114.254272 117.324753,114.114784 116.172966,113.778458 
	C114.783890,113.846962 113.394806,113.915466 111.499809,113.831566 
	C111.331169,113.882370 111.162529,113.933182 110.164406,113.772430 
	C109.381256,113.158226 107.947395,112.572136 107.919456,111.925308 
	C107.722618,107.367599 107.814957,102.797386 107.814957,97.858246 
	C111.630890,97.858246 114.720230,97.858246 117.990852,97.858246 
	C118.450928,87.809219 117.157890,77.291405 126.261276,70.588058 
	C134.797974,64.302010 144.518936,65.243950 154.033386,67.244942 
	C154.033386,72.157677 154.033386,76.423904 154.033386,80.643402 
	C137.677322,82.507645 134.809113,85.543472 137.674637,98.075638 
	C142.715820,98.075638 147.831787,98.075638 153.314545,98.075638 
	C152.508270,103.294281 151.756042,108.162994 150.588242,113.332611 
	C150.315704,113.539146 150.043182,113.745674 149.386459,113.812912 
	C149.386459,113.812912 149.013260,113.979416 148.100174,113.789162 
	C144.518890,113.789162 140.937607,113.789162 137.106766,113.789162 
	C137.106766,115.452980 137.106766,116.714378 136.947830,118.651161 
	C137.000854,119.107567 137.053894,119.563972 136.951340,120.943855 
	C136.951340,130.051102 136.951340,139.158340 136.951340,148.762177 
	C139.440659,148.087601 141.323837,147.577301 143.975204,147.118362 
	C146.336151,146.345764 148.791168,145.782181 151.043579,144.768433 
	C175.161392,133.913742 187.199295,107.747040 179.485672,83.098747 
	C171.581512,57.841621 146.739258,43.097298 120.391365,48.025242 
	C97.387611,52.327709 80.213264,72.943230 79.589607,97.002281 
	C78.986542,120.267555 94.911789,141.512070 117.590126,147.010147 
	C117.711014,146.673996 117.831902,146.337845 118.127670,145.078156 
	C118.069183,135.051636 118.010696,125.025108 117.997589,114.393761 
z"/>
<path fill="#0467FE" opacity="1.000000" stroke="none" 
	d="
M117.008301,146.919342 
	C94.911789,141.512070 78.986542,120.267555 79.589607,97.002281 
	C80.213264,72.943230 97.387611,52.327709 120.391365,48.025242 
	C146.739258,43.097298 171.581512,57.841621 179.485672,83.098747 
	C187.199295,107.747040 175.161392,133.913742 151.043579,144.768433 
	C148.791168,145.782181 146.336151,146.345764 143.142822,147.077240 
	C138.772095,147.499847 137.931839,145.801666 137.917603,142.473022 
	C137.885590,134.987793 137.404953,127.504478 137.106934,120.020378 
	C137.053894,119.563972 137.000854,119.107567 137.293320,118.052612 
	C138.963257,116.636436 140.193375,115.463776 141.633392,115.081230 
	C144.022324,114.446587 146.546219,114.320007 149.013260,113.979416 
	C149.013260,113.979416 149.386459,113.812912 149.833984,113.802315 
	C150.522278,113.538383 150.763062,113.285049 151.003815,113.031723 
	C151.756042,108.162994 152.508270,103.294281 153.314545,98.075638 
	C147.831787,98.075638 142.715820,98.075638 137.674637,98.075638 
	C134.809113,85.543472 137.677322,82.507645 154.033386,80.643402 
	C154.033386,76.423904 154.033386,72.157677 154.033386,67.244942 
	C144.518936,65.243950 134.797974,64.302010 126.261276,70.588058 
	C117.157890,77.291405 118.450928,87.809219 117.990852,97.858246 
	C114.720230,97.858246 111.630890,97.858246 107.814957,97.858246 
	C107.814957,102.797386 107.722618,107.367599 107.919456,111.925308 
	C107.947395,112.572136 109.381256,113.158226 110.669846,114.047333 
	C111.452103,114.209480 111.728920,114.096725 112.005730,113.983978 
	C113.394806,113.915466 114.783890,113.846962 116.682381,114.097557 
	C117.379173,114.696999 117.632645,114.890968 117.952209,114.998581 
	C118.010696,125.025108 118.069183,135.051636 117.834885,145.638031 
	C117.284019,146.379105 117.106087,146.619568 117.008301,146.919342 
z"/>
<path fill="#025DF8" opacity="1.000000" stroke="none" 
	d="
M137.029144,120.482117 
	C137.404953,127.504478 137.885590,134.987793 137.917603,142.473022 
	C137.931839,145.801666 138.772095,147.499847 142.758728,147.051544 
	C141.323837,147.577301 139.440659,148.087601 136.951340,148.762177 
	C136.951340,139.158340 136.951340,130.051102 137.029144,120.482117 
z"/>
<path fill="#025DF8" opacity="1.000000" stroke="none" 
	d="
M148.556717,113.884285 
	C146.546219,114.320007 144.022324,114.446587 141.633392,115.081230 
	C140.193375,115.463776 138.963257,116.636436 137.372787,117.714912 
	C137.106766,116.714378 137.106766,115.452980 137.106766,113.789162 
	C140.937607,113.789162 144.518890,113.789162 148.556717,113.884285 
z"/>
<path fill="#025DF8" opacity="1.000000" stroke="none" 
	d="
M150.796036,113.182167 
	C150.763062,113.285049 150.522278,113.538383 150.026062,113.871964 
	C150.043182,113.745674 150.315704,113.539146 150.796036,113.182167 
z"/>
<path fill="#005CFD" opacity="1.000000" stroke="none" 
	d="
M111.752769,113.907776 
	C111.728920,114.096725 111.452103,114.209480 111.084587,114.153107 
	C111.162529,113.933182 111.331169,113.882370 111.752769,113.907776 
z"/>
<path fill="#005CFD" opacity="1.000000" stroke="none" 
	d="
M117.974899,114.696167 
	C117.632645,114.890968 117.379173,114.696999 117.090065,114.195976 
	C117.324753,114.114784 117.661171,114.254272 117.974899,114.696167 
z"/>
<path fill="#005CFD" opacity="1.000000" stroke="none" 
	d="
M117.299210,146.964752 
	C117.106087,146.619568 117.284019,146.379105 117.747437,146.099808 
	C117.831902,146.337845 117.711014,146.673996 117.299210,146.964752 
z"/>
</svg>